<svg width="50" height="50" viewBox="0 0 50 50" fill="none" xmlns="http://www.w3.org/2000/svg">
<g clip-path="url(#clip0_105_1421)">
<path d="M0 25C0 11.193 11.193 0 25 0C38.807 0 50 11.193 50 25L25 27.1739L0 25Z" fill="#FFDA44"/>
<path d="M3.3457 37.5001C7.66846 44.9724 15.747 50.0001 25.0004 50.0001C34.2538 50.0001 42.3323 44.9724 46.6551 37.5001L25.0004 35.8696L3.3457 37.5001Z" fill="#D80027"/>
<path d="M46.6547 37.5C48.7818 33.8229 50 29.5538 50 25H0C0 29.5538 1.21816 33.8229 3.34531 37.5H46.6547Z" fill="#0052B4"/>
<path d="M25.0003 33.6954C29.8027 33.6954 33.6959 29.8023 33.6959 24.9998C33.6959 20.1974 29.8027 16.3042 25.0003 16.3042C20.1978 16.3042 16.3047 20.1974 16.3047 24.9998C16.3047 29.8023 20.1978 33.6954 25.0003 33.6954Z" fill="#FFDA44"/>
<path d="M25.0002 30.4346C22.0034 30.4346 19.5654 27.9965 19.5654 24.9998V21.739C19.5654 18.7422 22.0035 16.3042 25.0002 16.3042C27.9969 16.3042 30.435 18.7423 30.435 21.739V24.9998C30.435 27.9966 27.997 30.4346 25.0002 30.4346Z" fill="#338AF3"/>
<path d="M33.6961 11.9566H27.1743C27.1743 10.7561 26.201 9.78271 25.0004 9.78271C23.7998 9.78271 22.8265 10.7561 22.8265 11.9566H16.3047C16.3047 13.1573 17.3505 14.1306 18.551 14.1306H18.4786C18.4786 15.3312 19.4519 16.3045 20.6525 16.3045C20.6525 17.5052 21.6258 18.4784 22.8265 18.4784H27.1743C28.375 18.4784 29.3482 17.5052 29.3482 16.3045C30.5489 16.3045 31.5222 15.3312 31.5222 14.1306H31.4498C32.6504 14.1306 33.6961 13.1572 33.6961 11.9566V11.9566Z" fill="black"/>
</g>
<defs>
<clipPath id="clip0_105_1421">
<rect width="50" height="50" fill="white"/>
</clipPath>
</defs>
</svg>
